<?xml version="1.0" encoding="UTF-8" standalone="no"?>
<!DOCTYPE svg PUBLIC "-//W3C//DTD SVG 1.1//EN" "http://www.w3.org/Graphics/SVG/1.1/DTD/svg11.dtd">
<svg width="100%" height="100%" viewBox="0 0 700 400" version="1.1" xmlns="http://www.w3.org/2000/svg" xmlns:xlink="http://www.w3.org/1999/xlink" xml:space="preserve" xmlns:serif="http://www.serif.com/" style="fill-rule:evenodd;clip-rule:evenodd;stroke-linejoin:round;stroke-miterlimit:2;">
    <g transform="matrix(1,0,0,1,-150,0)">
        <path d="M362.229,121.266L281.781,74.667L249.323,93.667L201.609,278.547L211.458,284.234L222.276,277.854L225.745,264.26L278.177,294.776L271.932,319.464L281.781,325.146L292.599,318.766L320.344,211.141L328.661,215.995L339.344,209.615L382.62,233.885L388.865,250.667L398.432,256.635C398.432,256.635 410.083,251.224 409.807,250.531C409.667,249.974 362.229,121.266 362.229,121.266ZM264.859,113.224L288.161,127.094L290.656,133.891C290.656,133.891 263.75,117.661 263.333,118.214L264.859,113.224ZM283.724,272.307L231.568,242.208L236.427,223.208C236.427,223.208 288.302,253.302 288.995,253.302C289.688,253.583 283.724,272.307 283.724,272.307ZM294.682,231.391L242.391,200.88L247.245,182.156C247.245,182.156 299.677,212.115 299.677,212.391C299.813,212.667 294.682,231.391 294.682,231.391ZM305.359,190.057L252.792,159.547L257.646,140.13L302.448,165.927L307.995,180.349L305.359,190.057ZM341.286,141.099L350.302,145.677L352.521,151.641L338.094,143.318L341.286,141.099ZM333.797,159.688L361.12,175.078L363.203,180.63L332.823,163.292L333.797,159.688ZM330.469,184.792L328.943,180.49L330.052,180.214L371.938,204.625L373.745,209.479L330.469,184.792Z" style="fill:rgb(111,136,140);fill-rule:nonzero;"/>
        <path d="M281.781,74.807L362.229,121.406L329.495,140.406L249.323,93.667L281.781,74.807ZM312.99,159.547L316.042,148.729L263.193,118.078L252.24,124.458L312.99,159.547ZM252.932,159.406L242.391,165.786L302.589,200.88L305.5,190.057L252.932,159.406ZM242.391,200.88L231.568,206.979L291.63,242.208L294.682,231.391L242.391,200.88ZM231.568,242.208L220.615,248.589L280.948,283.677L283.724,272.307L231.568,242.208ZM324.917,194.219L379.432,225.427L373.745,209.479L330.469,184.792L326.724,187.01L324.917,194.219ZM330.052,174.25C330.885,174.526 369.167,196.719 369.167,196.719L363.063,180.63L332.823,163.292L330.052,174.25ZM335.182,154.417L358.208,167.453L352.38,151.781L337.958,143.458L335.182,154.417Z" style="fill:rgb(215,216,216);fill-rule:nonzero;"/>
        <g>
            <path d="M410.776,250.948L363.063,121.682L363.62,121.406L281.781,73.974L247.938,93.667L248.495,93.943L200.917,278.271L200.776,278.823L211.875,285.344L212.01,284.786L222.833,278.406L226.161,265.37L277.344,295.188L270.964,319.875L282.057,326.396L282.198,325.844L293.016,319.464L320.62,212.391L327.969,216.688L328.109,217.245L339.901,210.172L381.786,234.578L388.031,251.641L388.167,251.917L398.016,257.604L398.156,258.156L410.776,250.948ZM281.781,75.635L360.844,121.406L329.495,139.573L250.714,93.667L281.781,75.635ZM221.724,277.438L212.568,282.844L218.255,260.656L225.052,264.677L221.724,277.438ZM280.813,282.708L222.141,248.589L231.708,243.042L283.448,273.135L280.813,282.708ZM283.583,271.75L232.266,241.932L236.839,224.042L288.161,253.859L283.583,271.75ZM288.578,252.333L229.214,217.797L231.708,208.229L291.073,242.766L288.578,252.333ZM291.49,241.375L232.682,207.12L242.25,201.573L293.99,231.667L291.49,241.375ZM294.266,230.422L242.943,200.599L247.521,182.708L298.844,212.526L294.266,230.422ZM299.396,211L240.031,176.469L242.526,166.896L301.896,201.432L299.396,211ZM302.172,200.047L243.359,165.786L252.932,160.24L304.667,190.339L302.172,200.047ZM305.083,188.948L253.766,158.99L258.339,141.099L301.896,166.479L307.167,180.766L305.083,188.948ZM307.859,178.411L303.833,167.594L309.661,171.057L307.859,178.411ZM310.078,169.672L250.714,135L253.208,125.427L312.714,159.964L310.078,169.672ZM312.99,158.578L254.042,124.318L263.609,118.771L315.484,149.005L312.99,158.578ZM315.766,147.62L301.755,139.438L300.229,135L316.599,144.708L315.766,147.62ZM298.286,133.891L299.953,138.328L291.073,133.193L289.411,128.479L298.286,133.891ZM287.469,127.51L289.135,132.224L264.443,117.661L265.276,114.193L287.469,127.51ZM263.057,117.521L253.766,122.932L257.229,109.479L264.026,113.5L263.057,117.521ZM250.297,136.385L257.094,140.406L252.24,158.99L243.083,164.401L250.297,136.385ZM239.615,177.854L246.411,181.875L241.557,200.464L232.401,205.734L239.615,177.854ZM228.932,219.188L235.729,223.208L230.875,241.792L221.724,247.203L228.932,219.188ZM218.531,259.266L219.365,256.219L221.026,249.557L280.396,284.094L277.896,293.667L218.531,259.266ZM272.766,319.182L318.12,144.151L256.401,107.396L252.099,123.901L251.266,124.318L251.823,124.594L241.281,165.234L240.448,165.651L241,165.927L230.458,206.563L229.906,207.12L230.458,207.396L219.917,248.036L219.089,248.448L219.641,248.729L210.766,282.984L202.167,277.99L249.74,94.776L328.661,140.682L281.365,324.177L272.766,319.182ZM292.047,318.354L282.891,323.76L330.052,140.823L361.813,122.375L408.974,250.391L399.266,256.078L353.906,133.057L337.401,142.625L292.047,318.354ZM328.661,182.016L329.495,184.375L327.693,185.484L328.661,182.016ZM327.276,187.422L330.328,185.62L373.328,210.589L378.599,224.734L325.615,193.802L327.276,187.422ZM331.021,184.234L329.776,181.047L371.385,205.318L372.635,208.505L331.021,184.234ZM329.495,179.24L330.469,175.359L368.609,197.547L370.693,203.234L329.495,179.24ZM330.745,173.969L333.24,164.401L362.646,181.458L367.917,195.609L330.745,173.969ZM333.656,162.875L334.214,160.656L360.703,176.052L361.953,179.24L333.656,162.875ZM334.63,159.406L335.599,155.526L357.932,168.563L360.01,174.25L334.63,159.406ZM335.875,154.135L338.375,144.568L351.828,152.474L357.099,166.62L335.875,154.135ZM339.068,143.182L341.286,141.932L349.885,146.927L349.885,146.786L351.135,150.115L339.068,143.182ZM342.672,141.099L346.974,138.604L349.333,144.984L342.672,141.099ZM321.313,210.865L323.391,202.818L327.552,214.469L321.313,210.865ZM338.651,209.339L329.219,215.026L323.948,200.464L338.651,208.922L338.651,209.339ZM324.365,199.073L325.333,195.193L379.432,226.677L381.51,232.359L324.365,199.073ZM389.693,250.667L348.083,137.911L353.214,134.859L397.74,255.245L389.693,250.667Z" style="fill:rgb(111,136,140);fill-rule:nonzero;"/>
        </g>
    </g>
    <g transform="matrix(1,0,0,1,-150,0)">
        <g transform="matrix(1,0,0,1,431.461,175)">
            <g>
                <g>
                    <path d="M21.01,0.203L23.057,0.203L25.172,-0.068L26.536,-0.068L28.516,-0.682L31.313,-1.161L34.521,-2.526L39.089,-5.594L42.432,-9.891L43.115,-11.255L43.932,-12.349L45.026,-15.01L45.365,-16.302L45.641,-17.74L46.047,-18.896L46.255,-20.26L46.255,-21.693L46.458,-23.875L46.391,-25.854L45.432,-31.245L44.547,-33.839L44,-35.135L41.682,-38.75L38.068,-42.776L34.589,-45.094L33.292,-45.844L31.927,-46.115L30.766,-46.661L29.333,-47.005L25.307,-47.62L9.755,-47.755L8.526,-47.547L7.161,-47.62L5.661,-47.005L5.047,-45.573L4.979,-7.437L5.115,-6.141L5.115,-2.661L5.797,-0.547L7.161,0.135L8.526,0L16.849,0.135L18.214,-0.068L21.01,0.203ZM20.807,-10.984L19.51,-11.12L17.943,-11.87L17.396,-13.167L17.328,-14.328L17.396,-17.125L17.125,-20.464L17.396,-23.875L17.26,-33.292L17.396,-34.453L18.078,-36.021L20.26,-36.5L23.125,-36.568L25.104,-36.359L27.766,-35.609L28.995,-34.995L30.016,-34.245L31.042,-33.292L32.063,-32.062L32.745,-30.906L33.359,-29.677L34.453,-23.672L33.771,-18.896L32.609,-16.375L30.083,-13.505L27.766,-12.005L25.786,-11.391L22.854,-11.052L20.807,-10.984Z" style="fill:rgb(215,216,216);fill-rule:nonzero;"/>
                </g>
            </g>
        </g>
        <g transform="matrix(1,0,0,1,481.056,175)">
            <g>
                <g>
                    <path d="M27.354,0.885L33.427,0.271L36.021,-0.547L42.094,-3.276L46.865,-7.844L47.755,-9.073L50.417,-13.781L50.891,-15.078L51.099,-16.443L51.505,-17.531L51.781,-19.031L52.12,-23.807L51.781,-28.516L51.234,-31.042L50.688,-32.474L50.349,-34.042L49.12,-36.292L48.641,-37.521L47.755,-38.682L46.938,-39.5L46.047,-40.729L43.115,-43.385L39.635,-45.573L30.698,-48.37L27.495,-48.437L22.719,-48.161L21.354,-47.891L19.99,-47.479L18.76,-46.937L16.167,-46.255L12.688,-44.068L11.734,-43.25L9.552,-41.75L7.708,-39.703L5.391,-36.292L4.776,-35.135L3.479,-31.38L2.932,-28.448L2.661,-20.536L3.411,-16.234L4.432,-13.917L4.844,-12.484L5.526,-11.255L8.734,-6.891L10.641,-5.047L11.531,-4.026L16.167,-1.568L17.464,-1.021L23.26,0.682L27.354,0.885ZM25.448,-11.12L24.083,-11.599L22.854,-11.734L20.536,-12.964L18.422,-14.802L17.74,-15.76L16.849,-16.714L15.552,-20.536L15.214,-23.943L15.281,-25.99L15.76,-28.516L16.167,-29.745L16.984,-30.698L17.599,-31.859L18.49,-32.948L19.51,-33.839L21.49,-35.203L22.719,-35.818L24.151,-36.156L27.286,-36.427L30.563,-36.224L34.177,-34.656L36.292,-33.089L37.865,-30.766L38.406,-29.542L38.818,-28.177L39.297,-26.948L39.568,-24.016L39.156,-20.604L38.547,-17.807L37.792,-16.781L37.182,-15.76L36.359,-14.531L34.245,-12.896L33.021,-12.349L31.927,-11.734L30.698,-11.599L29.401,-11.255L25.448,-11.12Z" style="fill:rgb(215,216,216);fill-rule:nonzero;"/>
                </g>
            </g>
        </g>
        <g transform="matrix(1,0,0,1,535.768,175)">
            <g>
                <g>
                    <path d="M16.714,-1.5L17.807,-0.271L19.307,0.615L21.901,0.547L23.401,0L24.49,-1.432L25.104,-2.594L25.516,-4.094L26.198,-5.323L26.536,-6.479L27.151,-7.911L27.495,-9.005L29.609,-14.052L30.016,-15.484L31.245,-18.078L32.13,-20.74L32.813,-20.536L33.495,-19.375L33.906,-17.943L35.063,-15.62L38.953,-5.115L39.979,-2.865L40.385,-1.568L41.682,-0.135L43.25,0.682L44.547,0.615L45.708,0.411L47.344,-0.135L48.37,-1.365L48.776,-2.661L49.391,-3.891L53.484,-15.76L54.099,-16.917L56.349,-22.719L56.896,-24.625L57.51,-25.854L57.781,-27.016L62.146,-38.615L62.49,-40.115L63.172,-41.344L64.469,-45.505L64.057,-47.141L62.693,-47.479L61.328,-47.687L58.943,-47.547L56.214,-47.687L54.781,-47.547L53.484,-47.755L52.052,-47.073L50.891,-45.641L50.552,-44.344L49.938,-43.182L46.188,-31.177L45.911,-29.812L45.026,-26.948L44.547,-24.083L44.141,-22.786L43.458,-22.854L42.094,-26.745L41.75,-28.104L38.818,-35.818L38.135,-38.406L37.589,-39.703L36.771,-42.432L36.224,-43.594L35.677,-44.823L34.724,-46.187L33.292,-47.005L31.792,-47.005L30.427,-46.323L29.266,-44.958L27.016,-38.203L25.99,-35.745L23.536,-27.833L22.854,-26.812L22.583,-25.38L21.557,-22.786L21.01,-22.719L20.74,-24.354L16.375,-39.224L15.828,-40.385L15.01,-43.047L14.734,-44.411L14.188,-45.776L12.964,-46.865L11.667,-47.479L6.208,-47.547L4.979,-47.823L3.75,-47.62L2.318,-47.547L0.885,-47.141L0.615,-45.573L0.953,-43.729L3.823,-35.953L4.432,-34.792L7.229,-27.151L7.641,-25.651L9.552,-20.536L10.167,-19.443L15.693,-3.958L16.302,-2.661L16.714,-1.5Z" style="fill:rgb(215,216,216);fill-rule:nonzero;"/>
                </g>
            </g>
        </g>
        <g transform="matrix(1,0,0,1,600.848,175)">
            <g>
                <g>
                    <path d="M40.25,-1.161L42.094,-0.068L44,0.135L45.505,-0.339L46.188,-1.703L46.323,-26.604L46.115,-27.766L46.115,-34.521L46.323,-36.156L46.115,-45.641L45.432,-47.005L44.068,-47.755L35.609,-47.687L34.313,-46.937L33.563,-45.505L33.495,-44.068L33.703,-42.979L33.495,-40.115L33.63,-38.615L33.495,-26.401L33.089,-25.24L32.063,-25.719L27.219,-30.562L25.307,-32.062L11.87,-45.641L10.849,-46.458L9.276,-47.276L7.229,-47.755L5.661,-47.073L5.047,-45.776L5.047,-25.104L4.979,-23.943L5.115,-21.146L4.911,-19.99L5.047,-8.802L4.911,-7.505L5.047,-1.776L5.661,-0.479L7.094,0L9.891,0.135L11.391,0L14.052,0.203L15.484,0.135L16.849,-0.547L17.531,-2.661L17.599,-19.922L17.74,-21.286L18.214,-22.443L19.104,-22.104L19.99,-20.943L24.833,-16.302L25.719,-15.281L26.88,-14.531L37.453,-4.026L39.224,-2.047L40.25,-1.161Z" style="fill:rgb(215,216,216);fill-rule:nonzero;"/>
                </g>
            </g>
        </g>
        <g transform="matrix(1,0,0,1,670.772,175)">
            <g>
                <g>
                    <path d="M17.807,0.135L22.375,0L24.354,-0.682L25.036,-2.594L25.24,-6.141L25.036,-8.734L25.172,-10.167L25.104,-12.896L25.24,-14.12L25.036,-15.62L25.172,-26.604L24.969,-28.036L25.172,-33.974L25.719,-36.021L27.016,-36.839L29.677,-36.974L32.198,-36.635L33.63,-36.839L34.859,-36.771L36.021,-37.521L36.839,-39.021L36.906,-45.505L36.156,-46.865L34.859,-47.755L30.63,-47.755L29.333,-47.891L27.901,-47.687L26.604,-47.823L21.078,-47.547L19.714,-47.823L18.422,-47.891L16.984,-47.687L15.484,-47.823L14.26,-47.547L10.234,-47.755L8.12,-47.547L3.344,-47.823L2.047,-47.141L1.229,-45.573L1.297,-44.208L1.161,-40.797L1.297,-38.682L1.911,-37.453L3.141,-36.771L4.5,-36.906L10.984,-36.771L12.281,-36.089L13.031,-34.724L12.896,-32.542L13.031,-30.63L12.964,-29.13L13.031,-27.766L12.896,-25.854L13.099,-15.693L12.964,-14.328L12.896,-8.802L13.031,-7.37L12.964,-3.411L12.823,-2.115L13.714,-0.615L15.693,0.068L17.807,0.135Z" style="fill:rgb(215,216,216);fill-rule:nonzero;"/>
                </g>
            </g>
        </g>
        <g transform="matrix(1,0,0,1,708.907,175)">
            <g>
                <g>
                    <path d="M4.979,-1.911L5.797,-0.615L7.094,0.135L8.458,0.068L11.188,0.203L12.62,0.068L15.484,0.135L16.917,-0.682L17.464,-1.979L17.599,-3.276L17.464,-4.776L17.464,-16.849L18.078,-18.281L19.51,-19.172L27.563,-19.24L28.995,-19.031L30.224,-19.031L31.516,-18.281L32.198,-16.984L32.266,-1.911L33.021,-0.818L34.995,0.068L38.547,0.068L39.906,-0.068L42.703,0.135L44,-0.75L44.823,-1.911L44.682,-8.12L44.891,-10.302L44.682,-11.391L44.75,-45.641L44.141,-47.073L42.776,-47.62L34.927,-47.687L32.948,-47.208L32.266,-45.573L32.198,-42.979L32.339,-41.818L32.198,-39.021L32.406,-37.724L32.339,-32.406L31.583,-31.042L30.224,-30.292L28.927,-30.495L26.266,-30.224L24.833,-30.359L23.604,-30.224L19.578,-30.292L18.281,-30.906L17.599,-32.198L17.531,-33.703L17.531,-35.135L17.464,-36.359L17.531,-41.682L17.667,-43.182L17.531,-45.708L16.917,-47.005L15.484,-47.755L13.984,-47.62L7.229,-47.755L5.729,-47.073L5.047,-45.708L4.911,-44.208L5.047,-38.885L4.911,-37.521L5.182,-34.724L5.047,-32.13L5.115,-30.495L4.979,-29.13L4.979,-8.734L5.182,-7.505L4.979,-1.911Z" style="fill:rgb(215,216,216);fill-rule:nonzero;"/>
                </g>
            </g>
        </g>
        <g transform="matrix(1,0,0,1,758.843,175)">
            <g>
                <g>
                    <path d="M23.74,0.203L33.495,0.068L34.927,-0.547L35.677,-1.979L35.677,-8.87L34.927,-10.234L33.495,-10.849L31.927,-10.708L30.63,-10.917L27.151,-10.984L24.901,-10.708L23.536,-10.849L22.036,-10.781L20.74,-10.984L19.24,-10.849L17.807,-11.531L17.26,-12.755L17.26,-17.057L17.875,-18.49L19.104,-19.24L21.146,-19.307L23.333,-19.104L25.922,-19.24L28.719,-19.172L30.083,-19.307L31.656,-19.24L33.021,-19.781L33.495,-21.146L33.703,-27.286L33.021,-29.198L31.448,-30.083L27.422,-30.083L25.99,-29.948L23.125,-30.151L19.172,-30.016L17.74,-30.63L17.193,-32.745L17.193,-34.859L17.807,-36.156L19.307,-36.703L20.604,-36.635L21.901,-36.906L31.656,-36.771L32.948,-36.839L34.385,-37.656L35.063,-38.885L34.995,-40.25L35.063,-41.615L34.927,-45.708L34.313,-47.005L32.948,-47.547L31.516,-47.547L30.292,-47.823L24.766,-47.755L23.26,-47.62L21.901,-47.755L20.74,-47.687L19.375,-47.823L13.781,-47.687L12.417,-47.891L11.12,-47.62L9.891,-47.755L8.526,-47.62L7.161,-47.687L5.729,-47.141L4.979,-45.708L5.115,-43.115L4.911,-40.318L5.115,-38.818L4.979,-32.13L5.182,-30.698L5.047,-29.401L4.979,-23.807L5.182,-22.583L5.115,-11.531L4.979,-10.234L5.182,-8.87L4.979,-4.161L5.115,-2.661L5.661,-0.818L7.708,0.068L12.62,0.135L14.12,0L15.349,0.068L18.146,-0.135L19.443,0.135L21.01,0.203L22.375,0.068L23.74,0.203Z" style="fill:rgb(215,216,216);fill-rule:nonzero;"/>
                </g>
            </g>
        </g>
        <g transform="matrix(1,0,0,1,431.461,270)">
            <g>
                <g>
                    <path d="M5.182,-2.458L5.661,-0.682L6.958,0L8.323,0.135L11.188,-0.068L13.849,0.068L16.443,-0.068L17.74,0.135L19.24,0L32.745,0.068L34.042,-0.615L34.792,-2.729L34.724,-8.255L34.109,-10.302L32.88,-11.12L31.448,-10.984L30.151,-10.708L28.719,-10.917L25.922,-10.849L24.557,-11.12L23.333,-10.917L20.672,-11.052L19.24,-10.917L17.875,-11.464L17.328,-12.823L17.396,-35.953L17.26,-37.589L17.396,-40.318L17.193,-44.208L17.26,-45.505L16.578,-47.005L15.214,-47.823L12.552,-47.823L11.188,-47.547L8.458,-47.823L7.161,-47.62L5.729,-47.073L5.115,-45.573L5.115,-36.021L4.979,-34.724L5.115,-33.359L4.911,-30.833L4.979,-29.333L5.115,-28.036L5.182,-2.458Z" style="fill:rgb(215,216,216);fill-rule:nonzero;"/>
                </g>
            </g>
        </g>
        <g transform="matrix(1,0,0,1,468.163,270)">
            <g>
                <g>
                    <path d="M40.25,0.135L42.844,-0.068L44.141,0.068L46.255,0L48.161,-0.339L48.37,-1.979L47.891,-3.547L46.865,-6.073L45.026,-9.62L44.068,-12.141L42.703,-14.599L40.115,-20.807L39.432,-21.828L38.75,-23.125L38.339,-24.625L37.724,-25.651L37.318,-26.745L35.885,-29.266L35.406,-30.698L30.906,-40.182L30.495,-41.547L29.745,-42.776L29.333,-44L28.036,-46.391L26.88,-47.62L24.625,-48.302L22.443,-47.547L21.219,-46.391L20.604,-45.229L20.125,-43.865L19.51,-42.911L16.781,-36.635L16.031,-35.609L15.693,-34.245L14.943,-32.948L14.531,-31.724L7.573,-17.125L7.161,-15.62L6.479,-14.599L6.005,-13.234L4.776,-11.052L3.75,-8.323L3,-7.37L2.661,-6.141L1.297,-3.411L0.885,-2.047L1.229,-0.339L2.594,0.068L5.255,-0.068L6.62,0.068L10.438,-0.068L12.005,-0.547L13.302,-1.776L14.531,-4.026L15.828,-5.323L17.26,-6.073L18.557,-5.865L21.422,-6.141L22.651,-5.937L29.333,-6.005L30.563,-5.865L32.063,-6.073L33.563,-5.323L34.859,-4.229L35.474,-2.932L35.885,-1.703L37.25,-0.682L38.818,0L40.25,0.135ZM24.766,-16.849L23.401,-17.125L21.828,-16.984L20.74,-17.464L20.672,-18.76L23.875,-26.13L24.625,-26.745L25.583,-26.198L28.786,-18.693L28.516,-17.464L27.495,-16.917L24.766,-16.849Z" style="fill:rgb(215,216,216);fill-rule:nonzero;"/>
                </g>
            </g>
        </g>
        <g transform="matrix(1,0,0,1,517.69,270)">
            <g>
                <g>
                    <path d="M21.01,0.203L23.057,0.203L25.172,-0.068L26.536,-0.068L28.516,-0.682L31.313,-1.161L34.521,-2.526L39.089,-5.594L42.432,-9.891L43.115,-11.255L43.932,-12.349L45.026,-15.01L45.365,-16.302L45.641,-17.74L46.047,-18.896L46.255,-20.26L46.255,-21.693L46.458,-23.875L46.391,-25.854L45.432,-31.245L44.547,-33.839L44,-35.135L41.682,-38.75L38.068,-42.776L34.589,-45.094L33.292,-45.844L31.927,-46.115L30.766,-46.661L29.333,-47.005L25.307,-47.62L9.755,-47.755L8.526,-47.547L7.161,-47.62L5.661,-47.005L5.047,-45.573L4.979,-7.437L5.115,-6.141L5.115,-2.661L5.797,-0.547L7.161,0.135L8.526,0L16.849,0.135L18.214,-0.068L21.01,0.203ZM20.807,-10.984L19.51,-11.12L17.943,-11.87L17.396,-13.167L17.328,-14.328L17.396,-17.125L17.125,-20.464L17.396,-23.875L17.26,-33.292L17.396,-34.453L18.078,-36.021L20.26,-36.5L23.125,-36.568L25.104,-36.359L27.766,-35.609L28.995,-34.995L30.016,-34.245L31.042,-33.292L32.063,-32.062L32.745,-30.906L33.359,-29.677L34.453,-23.672L33.771,-18.896L32.609,-16.375L30.083,-13.505L27.766,-12.005L25.786,-11.391L22.854,-11.052L20.807,-10.984Z" style="fill:rgb(215,216,216);fill-rule:nonzero;"/>
                </g>
            </g>
        </g>
        <g transform="matrix(1,0,0,1,567.285,270)">
            <g>
                <g>
                    <path d="M21.01,0.203L23.057,0.203L25.172,-0.068L26.536,-0.068L28.516,-0.682L31.313,-1.161L34.521,-2.526L39.089,-5.594L42.432,-9.891L43.115,-11.255L43.932,-12.349L45.026,-15.01L45.365,-16.302L45.641,-17.74L46.047,-18.896L46.255,-20.26L46.255,-21.693L46.458,-23.875L46.391,-25.854L45.432,-31.245L44.547,-33.839L44,-35.135L41.682,-38.75L38.068,-42.776L34.589,-45.094L33.292,-45.844L31.927,-46.115L30.766,-46.661L29.333,-47.005L25.307,-47.62L9.755,-47.755L8.526,-47.547L7.161,-47.62L5.661,-47.005L5.047,-45.573L4.979,-7.437L5.115,-6.141L5.115,-2.661L5.797,-0.547L7.161,0.135L8.526,0L16.849,0.135L18.214,-0.068L21.01,0.203ZM20.807,-10.984L19.51,-11.12L17.943,-11.87L17.396,-13.167L17.328,-14.328L17.396,-17.125L17.125,-20.464L17.396,-23.875L17.26,-33.292L17.396,-34.453L18.078,-36.021L20.26,-36.5L23.125,-36.568L25.104,-36.359L27.766,-35.609L28.995,-34.995L30.016,-34.245L31.042,-33.292L32.063,-32.062L32.745,-30.906L33.359,-29.677L34.453,-23.672L33.771,-18.896L32.609,-16.375L30.083,-13.505L27.766,-12.005L25.786,-11.391L22.854,-11.052L20.807,-10.984Z" style="fill:rgb(215,216,216);fill-rule:nonzero;"/>
                </g>
            </g>
        </g>
        <g transform="matrix(1,0,0,1,616.88,270)">
            <g>
                <g>
                    <path d="M23.74,0.203L33.495,0.068L34.927,-0.547L35.677,-1.979L35.677,-8.87L34.927,-10.234L33.495,-10.849L31.927,-10.708L30.63,-10.917L27.151,-10.984L24.901,-10.708L23.536,-10.849L22.036,-10.781L20.74,-10.984L19.24,-10.849L17.807,-11.531L17.26,-12.755L17.26,-17.057L17.875,-18.49L19.104,-19.24L21.146,-19.307L23.333,-19.104L25.922,-19.24L28.719,-19.172L30.083,-19.307L31.656,-19.24L33.021,-19.781L33.495,-21.146L33.703,-27.286L33.021,-29.198L31.448,-30.083L27.422,-30.083L25.99,-29.948L23.125,-30.151L19.172,-30.016L17.74,-30.63L17.193,-32.745L17.193,-34.859L17.807,-36.156L19.307,-36.703L20.604,-36.635L21.901,-36.906L31.656,-36.771L32.948,-36.839L34.385,-37.656L35.063,-38.885L34.995,-40.25L35.063,-41.615L34.927,-45.708L34.313,-47.005L32.948,-47.547L31.516,-47.547L30.292,-47.823L24.766,-47.755L23.26,-47.62L21.901,-47.755L20.74,-47.687L19.375,-47.823L13.781,-47.687L12.417,-47.891L11.12,-47.62L9.891,-47.755L8.526,-47.62L7.161,-47.687L5.729,-47.141L4.979,-45.708L5.115,-43.115L4.911,-40.318L5.115,-38.818L4.979,-32.13L5.182,-30.698L5.047,-29.401L4.979,-23.807L5.182,-22.583L5.115,-11.531L4.979,-10.234L5.182,-8.87L4.979,-4.161L5.115,-2.661L5.661,-0.818L7.708,0.068L12.62,0.135L14.12,0L15.349,0.068L18.146,-0.135L19.443,0.135L21.01,0.203L22.375,0.068L23.74,0.203Z" style="fill:rgb(215,216,216);fill-rule:nonzero;"/>
                </g>
            </g>
        </g>
        <g transform="matrix(1,0,0,1,655.969,270)">
            <g>
                <g>
                    <path d="M5.115,-2.797L5.797,-0.682L7.776,0.203L9.141,0L11.323,0.203L12.417,0.068L14.464,0.068L16.646,-0.615L17.26,-2.594L17.26,-4.911L17.396,-6.141L17.193,-7.573L17.328,-11.937L17.943,-13.302L19.24,-14.052L23.193,-13.505L24.557,-12.349L25.38,-10.984L25.922,-9.755L27.354,-7.708L28.651,-5.255L29.401,-4.229L29.948,-2.865L30.698,-1.703L32.198,-0.479L34.521,0.135L39.906,0.068L41.203,0.203L43.458,0.135L44.75,-0.479L45.161,-1.979L44.411,-3.479L43.594,-4.432L43.047,-5.729L40.729,-9.208L40.115,-10.437L37.932,-13.984L37.109,-15.01L37.042,-16.646L37.656,-18.146L38.615,-19.172L39.568,-19.99L42.229,-24.766L43.115,-28.719L42.979,-33.021L42.776,-34.385L41.547,-38.271L41,-39.432L40.25,-40.521L36.359,-44.615L33.974,-45.911L31.38,-46.797L27.495,-47.687L25.307,-47.755L23.333,-47.62L19.24,-47.62L17.875,-47.891L16.51,-47.891L15.281,-47.547L13.917,-47.547L12.552,-47.823L11.052,-47.891L7.026,-47.547L5.797,-46.865L4.979,-44.958L5.047,-29.333L5.182,-27.969L4.979,-25.24L5.047,-23.74L5.047,-22.375L5.182,-21.078L5.047,-19.781L4.979,-14.26L5.115,-12.896L5.115,-2.797ZM19.24,-24.969L17.875,-25.719L17.328,-26.812L17.328,-30.906L17.193,-32.062L17.328,-34.927L17.943,-36.224L19.375,-36.771L20.74,-36.703L23.469,-36.974L25.38,-36.568L27.151,-36.427L28.448,-36.089L30.151,-33.974L30.563,-32.88L30.833,-31.109L30.63,-29.062L30.016,-27.698L29.266,-26.672L28.516,-26.062L27.286,-25.516L25.307,-25.036L24.016,-24.969L20.74,-25.104L19.24,-24.969Z" style="fill:rgb(215,216,216);fill-rule:nonzero;"/>
                </g>
            </g>
        </g>
    </g>
</svg>
