<?xml version="1.0" encoding="UTF-8" standalone="no"?>
<!DOCTYPE svg PUBLIC "-//W3C//DTD SVG 1.1//EN" "http://www.w3.org/Graphics/SVG/1.1/DTD/svg11.dtd">
<svg width="100%" height="100%" viewBox="0 0 211 254" version="1.1" xmlns="http://www.w3.org/2000/svg" xmlns:xlink="http://www.w3.org/1999/xlink" xml:space="preserve" xmlns:serif="http://www.serif.com/" style="fill-rule:evenodd;clip-rule:evenodd;stroke-linejoin:round;stroke-miterlimit:2;">
    <g transform="matrix(1,0,0,1,-50,-73)">
        <g transform="matrix(1,0,0,1,-150,0)">
            <path d="M362.229,121.266L281.781,74.667L249.323,93.667L201.609,278.547L211.458,284.234L222.276,277.854L225.745,264.26L278.177,294.776L271.932,319.464L281.781,325.146L292.599,318.766L320.344,211.141L328.661,215.995L339.344,209.615L382.62,233.885L388.865,250.667L398.432,256.635C398.432,256.635 410.083,251.224 409.807,250.531C409.667,249.974 362.229,121.266 362.229,121.266ZM264.859,113.224L288.161,127.094L290.656,133.891C290.656,133.891 263.75,117.661 263.333,118.214L264.859,113.224ZM283.724,272.307L231.568,242.208L236.427,223.208C236.427,223.208 288.302,253.302 288.995,253.302C289.688,253.583 283.724,272.307 283.724,272.307ZM294.682,231.391L242.391,200.88L247.245,182.156C247.245,182.156 299.677,212.115 299.677,212.391C299.813,212.667 294.682,231.391 294.682,231.391ZM305.359,190.057L252.792,159.547L257.646,140.13L302.448,165.927L307.995,180.349L305.359,190.057ZM341.286,141.099L350.302,145.677L352.521,151.641L338.094,143.318L341.286,141.099ZM333.797,159.688L361.12,175.078L363.203,180.63L332.823,163.292L333.797,159.688ZM330.469,184.792L328.943,180.49L330.052,180.214L371.938,204.625L373.745,209.479L330.469,184.792Z" style="fill:rgb(111,136,140);fill-rule:nonzero;"/>
            <path d="M281.781,74.807L362.229,121.406L329.495,140.406L249.323,93.667L281.781,74.807ZM312.99,159.547L316.042,148.729L263.193,118.078L252.24,124.458L312.99,159.547ZM252.932,159.406L242.391,165.786L302.589,200.88L305.5,190.057L252.932,159.406ZM242.391,200.88L231.568,206.979L291.63,242.208L294.682,231.391L242.391,200.88ZM231.568,242.208L220.615,248.589L280.948,283.677L283.724,272.307L231.568,242.208ZM324.917,194.219L379.432,225.427L373.745,209.479L330.469,184.792L326.724,187.01L324.917,194.219ZM330.052,174.25C330.885,174.526 369.167,196.719 369.167,196.719L363.063,180.63L332.823,163.292L330.052,174.25ZM335.182,154.417L358.208,167.453L352.38,151.781L337.958,143.458L335.182,154.417Z" style="fill:rgb(215,216,216);fill-rule:nonzero;"/>
            <g>
                <path d="M410.776,250.948L363.063,121.682L363.62,121.406L281.781,73.974L247.938,93.667L248.495,93.943L200.917,278.271L200.776,278.823L211.875,285.344L212.01,284.786L222.833,278.406L226.161,265.37L277.344,295.188L270.964,319.875L282.057,326.396L282.198,325.844L293.016,319.464L320.62,212.391L327.969,216.688L328.109,217.245L339.901,210.172L381.786,234.578L388.031,251.641L388.167,251.917L398.016,257.604L398.156,258.156L410.776,250.948ZM281.781,75.635L360.844,121.406L329.495,139.573L250.714,93.667L281.781,75.635ZM221.724,277.438L212.568,282.844L218.255,260.656L225.052,264.677L221.724,277.438ZM280.813,282.708L222.141,248.589L231.708,243.042L283.448,273.135L280.813,282.708ZM283.583,271.75L232.266,241.932L236.839,224.042L288.161,253.859L283.583,271.75ZM288.578,252.333L229.214,217.797L231.708,208.229L291.073,242.766L288.578,252.333ZM291.49,241.375L232.682,207.12L242.25,201.573L293.99,231.667L291.49,241.375ZM294.266,230.422L242.943,200.599L247.521,182.708L298.844,212.526L294.266,230.422ZM299.396,211L240.031,176.469L242.526,166.896L301.896,201.432L299.396,211ZM302.172,200.047L243.359,165.786L252.932,160.24L304.667,190.339L302.172,200.047ZM305.083,188.948L253.766,158.99L258.339,141.099L301.896,166.479L307.167,180.766L305.083,188.948ZM307.859,178.411L303.833,167.594L309.661,171.057L307.859,178.411ZM310.078,169.672L250.714,135L253.208,125.427L312.714,159.964L310.078,169.672ZM312.99,158.578L254.042,124.318L263.609,118.771L315.484,149.005L312.99,158.578ZM315.766,147.62L301.755,139.438L300.229,135L316.599,144.708L315.766,147.62ZM298.286,133.891L299.953,138.328L291.073,133.193L289.411,128.479L298.286,133.891ZM287.469,127.51L289.135,132.224L264.443,117.661L265.276,114.193L287.469,127.51ZM263.057,117.521L253.766,122.932L257.229,109.479L264.026,113.5L263.057,117.521ZM250.297,136.385L257.094,140.406L252.24,158.99L243.083,164.401L250.297,136.385ZM239.615,177.854L246.411,181.875L241.557,200.464L232.401,205.734L239.615,177.854ZM228.932,219.188L235.729,223.208L230.875,241.792L221.724,247.203L228.932,219.188ZM218.531,259.266L219.365,256.219L221.026,249.557L280.396,284.094L277.896,293.667L218.531,259.266ZM272.766,319.182L318.12,144.151L256.401,107.396L252.099,123.901L251.266,124.318L251.823,124.594L241.281,165.234L240.448,165.651L241,165.927L230.458,206.563L229.906,207.12L230.458,207.396L219.917,248.036L219.089,248.448L219.641,248.729L210.766,282.984L202.167,277.99L249.74,94.776L328.661,140.682L281.365,324.177L272.766,319.182ZM292.047,318.354L282.891,323.76L330.052,140.823L361.813,122.375L408.974,250.391L399.266,256.078L353.906,133.057L337.401,142.625L292.047,318.354ZM328.661,182.016L329.495,184.375L327.693,185.484L328.661,182.016ZM327.276,187.422L330.328,185.62L373.328,210.589L378.599,224.734L325.615,193.802L327.276,187.422ZM331.021,184.234L329.776,181.047L371.385,205.318L372.635,208.505L331.021,184.234ZM329.495,179.24L330.469,175.359L368.609,197.547L370.693,203.234L329.495,179.24ZM330.745,173.969L333.24,164.401L362.646,181.458L367.917,195.609L330.745,173.969ZM333.656,162.875L334.214,160.656L360.703,176.052L361.953,179.24L333.656,162.875ZM334.63,159.406L335.599,155.526L357.932,168.563L360.01,174.25L334.63,159.406ZM335.875,154.135L338.375,144.568L351.828,152.474L357.099,166.62L335.875,154.135ZM339.068,143.182L341.286,141.932L349.885,146.927L349.885,146.786L351.135,150.115L339.068,143.182ZM342.672,141.099L346.974,138.604L349.333,144.984L342.672,141.099ZM321.313,210.865L323.391,202.818L327.552,214.469L321.313,210.865ZM338.651,209.339L329.219,215.026L323.948,200.464L338.651,208.922L338.651,209.339ZM324.365,199.073L325.333,195.193L379.432,226.677L381.51,232.359L324.365,199.073ZM389.693,250.667L348.083,137.911L353.214,134.859L397.74,255.245L389.693,250.667Z" style="fill:rgb(111,136,140);fill-rule:nonzero;"/>
            </g>
        </g>
    </g>
</svg>
